<svg id="Layer_1" data-name="Layer 1" xmlns="http://www.w3.org/2000/svg" viewBox="0 0 105 105"><defs><style>.cls-1{fill:#6b4fa3;}.cls-2{fill:#fff;}</style></defs><title>iconsTwitter</title><circle class="cls-1" cx="52.5" cy="52.5" r="52.5"/><path class="cls-2" d="M542.2,260.63a23.63,23.63,0,0,1-5.79,1.65c0.93-.16,2.3-1.84,2.85-2.52a10.62,10.62,0,0,0,1.92-3.5,0.23,0.23,0,0,0,0-.3,0.33,0.33,0,0,0-.31,0,29.54,29.54,0,0,1-6.87,2.63,0.46,0.46,0,0,1-.47-0.13,5.56,5.56,0,0,0-.6-0.61,12.14,12.14,0,0,0-3.33-2,11.58,11.58,0,0,0-5.1-.82,12.2,12.2,0,0,0-4.84,1.37,12.47,12.47,0,0,0-3.9,3.19,12,12,0,0,0-2.33,4.67,12.65,12.65,0,0,0-.12,4.93c0,0.28,0,.31-0.24.28-9.43-1.4-17.25-4.78-23.59-12-0.28-.31-0.42-0.31-0.65,0-2.78,4.16-1.43,10.85,2,14.13,0.46,0.44.94,0.88,1.45,1.28a12,12,0,0,1-4.55-1.28c-0.28-.17-0.41-0.07-0.44.24a7.25,7.25,0,0,0,.07,1.35,12.1,12.1,0,0,0,7.46,9.64,7,7,0,0,0,1.51.46,13.48,13.48,0,0,1-4.46.14c-0.33-.06-0.45.1-0.33,0.41,2,5.35,6.21,6.95,9.38,7.86,0.42,0.07.85,0.07,1.28,0.17,0,0-.05,0-0.08.08-1.05,1.61-4.71,2.8-6.41,3.4a23,23,0,0,1-9.73,1.25,1.21,1.21,0,0,0-.77,0c-0.14.09,0,.21,0.15,0.35,0.66,0.44,1.34.83,2,1.2a32.13,32.13,0,0,0,6.5,2.6c11.69,3.23,24.85.86,33.63-7.86,6.89-6.85,9.31-16.29,9.31-25.75a1.22,1.22,0,0,1,.7-0.77,22.76,22.76,0,0,0,4.58-4.76,1.45,1.45,0,0,0,.3-0.91v0C542.44,260.48,542.43,260.53,542.2,260.63Z" transform="translate(-460.69 -226.12)"/></svg>