<svg id="Layer_1" data-name="Layer 1" xmlns="http://www.w3.org/2000/svg" viewBox="0 0 105.15 105.15"><defs><style>.cls-1{fill:#6b4fa3;}.cls-2{fill:#fff;}</style></defs><title>iconPin</title><path class="cls-1" d="M513.27,226.12a52.56,52.56,0,0,0-21.45,100.55c-0.06-1.48-.13-3-0.08-4.44,0.17-5.11.8-6.87,7.39-34.59a1.91,1.91,0,0,0-.15-1.16,19.5,19.5,0,0,1-.51-13c3-9.45,13.7-10.18,15.58-2.38,1.15,4.82-1.9,11.14-4.25,20.47-1.94,7.7,7.12,13.18,14.87,7.55,7.15-5.18,9.92-17.61,9.39-26.41-1-17.56-20.29-21.35-32.51-15.7-14,6.47-17.18,23.83-10.86,31.76,0.8,1,1.42,1.63,1.16,2.65-0.41,1.59-.77,3.19-1.2,4.77a1.69,1.69,0,0,1-2.5,1.12A14.32,14.32,0,0,1,482.3,293c-5.37-6.65-6.9-19.8.19-30.93,7.86-12.33,22.49-17.32,35.85-15.81,16,1.81,26,12.71,27.92,25.08,0.86,5.63.24,19.52-7.67,29.34-9.1,11.28-23.84,12-30.65,5.11-0.53-.53-0.94-1.15-1.46-1.79-0.08.25-.14,0.47-0.2,0.69-3.27,12.8-3.63,15.64-7,21.58-0.52.91-1.09,1.79-1.65,2.67A52.58,52.58,0,1,0,513.27,226.12Z" transform="translate(-460.69 -226.12)"/><path class="cls-2" d="M506.3,304.67c0.06-.22.12-0.43,0.2-0.69,0.51,0.63.93,1.26,1.46,1.79,6.8,6.92,21.55,6.18,30.65-5.11,7.91-9.82,8.53-23.71,7.67-29.34-1.89-12.37-12-23.26-27.92-25.08-13.36-1.51-28,3.48-35.85,15.81-7.1,11.13-5.56,24.28-.19,30.93a14.32,14.32,0,0,0,5.85,4.38,1.69,1.69,0,0,0,2.5-1.12c0.44-1.58.8-3.18,1.2-4.77,0.27-1-.35-1.64-1.16-2.65-6.32-7.93-3.14-25.29,10.86-31.76,12.22-5.65,31.47-1.86,32.51,15.7,0.53,8.81-2.25,21.23-9.39,26.41-7.75,5.62-16.81.15-14.87-7.55,2.34-9.33,5.4-15.65,4.25-20.47-1.88-7.8-12.59-7.08-15.58,2.38a19.5,19.5,0,0,0,.51,13,1.91,1.91,0,0,1,.15,1.16c-6.59,27.72-7.22,29.48-7.39,34.59,0,1.48,0,3,.08,4.44a51.88,51.88,0,0,0,5.85,2.25c0.56-.88,1.13-1.76,1.65-2.67C502.67,320.31,503,317.47,506.3,304.67Z" transform="translate(-460.69 -226.12)"/></svg>