<svg id="Layer_1" data-name="Layer 1" xmlns="http://www.w3.org/2000/svg" viewBox="0 0 104.36 104.36"><defs><style>.cls-1{fill:#6b4fa3;}.cls-2{fill:#fff;}</style></defs><title>iconsInsta</title><circle class="cls-1" cx="52.18" cy="52.18" r="52.18"/><circle class="cls-2" cx="68.38" cy="36.03" r="3.59"/><path class="cls-2" d="M513.13,263.16a15.07,15.07,0,1,0,15.07,15.07A15.08,15.08,0,0,0,513.13,263.16Zm0,24.72a9.65,9.65,0,1,1,9.65-9.65A9.66,9.66,0,0,1,513.13,287.88Z" transform="translate(-460.69 -226.12)"/><path class="cls-2" d="M525.09,308.82H500.66a18.4,18.4,0,0,1-18.38-18.38V266a18.4,18.4,0,0,1,18.38-18.38h24.43A18.4,18.4,0,0,1,543.47,266v24.43A18.4,18.4,0,0,1,525.09,308.82Zm-24.43-55.43A12.63,12.63,0,0,0,488,266v24.43a12.64,12.64,0,0,0,12.62,12.62h24.43a12.64,12.64,0,0,0,12.62-12.62V266a12.64,12.64,0,0,0-12.62-12.62H500.66Z" transform="translate(-460.69 -226.12)"/></svg>